<svg width="2680" height="989" xmlns="http://www.w3.org/2000/svg" xmlns:xlink="http://www.w3.org/1999/xlink" overflow="hidden"><defs><clipPath id="clip0"><rect x="1087" y="623" width="2680" height="989"/></clipPath><clipPath id="clip1"><rect x="1472" y="446" width="942" height="522"/></clipPath><clipPath id="clip2"><rect x="2413" y="446" width="259" height="522"/></clipPath><clipPath id="clip3"><rect x="2671" y="446" width="1093" height="522"/></clipPath><clipPath id="clip4"><rect x="1472" y="604" width="942" height="522"/></clipPath><clipPath id="clip5"><rect x="2671" y="604" width="1093" height="522"/></clipPath><clipPath id="clip6"><rect x="1472" y="474" width="942" height="1100"/></clipPath><clipPath id="clip7"><rect x="1472" y="474" width="942" height="1100"/></clipPath><clipPath id="clip8"><rect x="2671" y="763" width="1093" height="522"/></clipPath><clipPath id="clip9"><rect x="1472" y="633" width="942" height="1099"/></clipPath><clipPath id="clip10"><rect x="1472" y="633" width="942" height="1099"/></clipPath><clipPath id="clip11"><rect x="2671" y="633" width="1093" height="1099"/></clipPath><clipPath id="clip12"><rect x="2671" y="633" width="1093" height="1099"/></clipPath><clipPath id="clip13"><rect x="1472" y="792" width="942" height="1099"/></clipPath><clipPath id="clip14"><rect x="1472" y="792" width="942" height="1099"/></clipPath><clipPath id="clip15"><rect x="2671" y="1080" width="1093" height="522"/></clipPath><clipPath id="clip16"><rect x="1472" y="1239" width="942" height="522"/></clipPath><clipPath id="clip17"><rect x="2671" y="950" width="1093" height="1100"/></clipPath><clipPath id="clip18"><rect x="2671" y="950" width="1093" height="1100"/></clipPath></defs><g clip-path="url(#clip0)" transform="translate(-1087 -623)"><path d="M1087.4 785.909 3763.4 785.909" stroke="#000000" stroke-width="4.58333" stroke-linejoin="round" stroke-miterlimit="10" fill="none" fill-rule="evenodd"/><path d="M1087.4 627.234 3763.4 627.234" stroke="#000000" stroke-width="6.875" stroke-linejoin="round" stroke-miterlimit="10" fill="none" fill-rule="evenodd"/><path d="M1087.4 1579.28 3763.4 1579.28" stroke="#000000" stroke-width="6.875" stroke-linejoin="round" stroke-miterlimit="10" fill="none" fill-rule="evenodd"/><text font-family="Arial,Arial_MSFontService,sans-serif" font-weight="400" font-size="55" transform="matrix(1 0 0 1 1185.23 731)">Feature</text><g clip-path="url(#clip1)"><text font-family="Arial,Arial_MSFontService,sans-serif" font-weight="400" font-size="55" transform="matrix(1 0 0 1 1496.87 731)">Description</text></g><g clip-path="url(#clip2)"><text font-family="Arial,Arial_MSFontService,sans-serif" font-weight="400" font-size="55" transform="matrix(1 0 0 1 2438.02 731)">Feature</text></g><g clip-path="url(#clip3)"><text font-family="Arial,Arial_MSFontService,sans-serif" font-weight="400" font-size="55" transform="matrix(1 0 0 1 2695.98 731)">Description</text></g><text font-family="Arial,Arial_MSFontService,sans-serif" font-weight="400" font-size="55" transform="matrix(1 0 0 1 1214.73 890)">Î”S<tspan font-size="37" x="73.3334" y="13">mix</tspan></text><g clip-path="url(#clip4)"><text font-family="Arial,Arial_MSFontService,sans-serif" font-weight="400" font-size="55" transform="matrix(1 0 0 1 1496.87 890)">Mixing entropy</text></g><path d="M2537.62 862.004C2536.94 862.004 2536.29 862.125 2535.68 862.367 2535.06 862.609 2534.41 863.02 2533.74 863.602 2533.07 864.184 2532.43 864.967 2531.82 865.952 2531.21 866.937 2530.67 868.096 2530.18 869.43 2529.7 870.764 2529.23 872.469 2528.79 874.546L2527.85 878.87C2527.81 879.067 2527.77 879.349 2527.73 879.716 2527.68 880.083 2527.66 880.418 2527.66 880.723 2527.66 881.868 2528.13 882.75 2529.07 883.368 2530.01 883.986 2531.26 884.294 2532.82 884.294 2534.66 884.294 2536.29 883.547 2537.72 882.052 2539.14 880.557 2540.25 878.498 2541.03 875.875 2541.82 873.252 2542.21 870.643 2542.21 868.047 2542.21 866.883 2542.09 865.867 2541.85 864.999 2541.61 864.13 2541.15 863.414 2540.47 862.85 2539.79 862.286 2538.84 862.004 2537.62 862.004ZM2538.32 859.883C2540.06 859.883 2541.59 860.236 2542.91 860.944 2544.24 861.651 2545.24 862.676 2545.92 864.018 2546.6 865.361 2546.94 867.008 2546.94 868.96 2546.94 872.004 2546.35 874.891 2545.16 877.621 2543.96 880.351 2542.31 882.5 2540.19 884.066 2538.07 885.633 2535.69 886.416 2533.06 886.416 2531.84 886.416 2530.68 886.309 2529.59 886.094 2528.5 885.879 2527.41 885.512 2526.32 884.993L2523.52 897.588 2519.12 897.588 2524.57 873.284C2525.22 870.419 2526.14 868.02 2527.34 866.086 2528.54 864.153 2530.06 862.635 2531.9 861.534 2533.75 860.433 2535.89 859.883 2538.32 859.883Z" fill-rule="evenodd"/><text fill="#000000" fill-opacity="0" font-family="Arial,Arial_MSFontService,sans-serif" font-size="37.7051" x="2519.12" y="892.875">ğœŒ</text><path d="M2529.97 850.994 2549.87 850.994 2549.87 853.84 2529.97 853.84Z" fill-rule="evenodd"/><text fill="#000000" fill-opacity="0" font-family="Arial,Arial_MSFontService,sans-serif" font-size="2.84668" x="2529.97" y="853.484">Ò§</text><g clip-path="url(#clip5)"><text font-family="Arial,Arial_MSFontService,sans-serif" font-weight="400" font-size="55" transform="matrix(1 0 0 1 2695.98 890)">Average density of constituent TMCs</text></g><path d="M1253.93 1005.78 1259.57 1005.78 1269.81 1034.38C1270.63 1036.68 1271.32 1038.82 1271.87 1040.83 1272.48 1038.68 1273.19 1036.53 1273.99 1034.38L1284.63 1005.78 1289.95 1005.78 1274.53 1045.15 1269.19 1045.15Z" fill-rule="evenodd"/><text fill="#000000" fill-opacity="0" font-family="Arial,Arial_MSFontService,sans-serif" font-size="39.3701" x="1253.93" y="1040.23">V</text><path d="M1256.44 997.007 1287.62 997.007 1287.62 999.854 1256.44 999.854Z" fill-rule="evenodd"/><text fill="#000000" fill-opacity="0" font-family="Arial,Arial_MSFontService,sans-serif" font-size="2.84668" x="1256.44" y="999.498">à´¥</text><g clip-path="url(#clip6)"><text font-family="Arial,Arial_MSFontService,sans-serif" font-weight="400" font-size="55" transform="matrix(1 0 0 1 1496.87 1007)">Average volume of constituent </text></g><g clip-path="url(#clip7)"><text font-family="Arial,Arial_MSFontService,sans-serif" font-weight="400" font-size="55" transform="matrix(1 0 0 1 1496.87 1089)">TMCs per formula unit</text></g><text font-family="Arial,Arial_MSFontService,sans-serif" font-weight="400" font-size="55" transform="matrix(1 0 0 1 2515.04 1049)">Ïƒ<tspan font-size="37" x="33.802" y="13">Ï</tspan></text><g clip-path="url(#clip8)"><text font-family="Arial,Arial_MSFontService,sans-serif" font-weight="400" font-size="55" transform="matrix(1 0 0 1 2695.98 1049)">Density deviation of constituent TMCs</text></g><text font-family="Arial,Arial_MSFontService,sans-serif" font-weight="400" font-size="55" transform="matrix(1 0 0 1 1250.54 1207)">Ïƒ<tspan font-size="37" x="33.8021" y="13">V</tspan></text><g clip-path="url(#clip9)"><text font-family="Arial,Arial_MSFontService,sans-serif" font-weight="400" font-size="55" transform="matrix(1 0 0 1 1496.87 1166)">Volume deviation of constituent </text></g><g clip-path="url(#clip10)"><text font-family="Arial,Arial_MSFontService,sans-serif" font-weight="400" font-size="55" transform="matrix(1 0 0 1 1496.87 1248)">TMCs</text></g><text font-family="Arial,Arial_MSFontService,sans-serif" font-weight="400" font-size="55" transform="matrix(1 0 0 1 2485.82 1207)">VEC</text><g clip-path="url(#clip11)"><text font-family="Arial,Arial_MSFontService,sans-serif" font-weight="400" font-size="55" transform="matrix(1 0 0 1 2695.98 1166)">Valence electron concentration of HECC </text></g><g clip-path="url(#clip12)"><text font-family="Arial,Arial_MSFontService,sans-serif" font-weight="400" font-size="55" transform="matrix(1 0 0 1 2695.98 1248)">candidates</text></g><path d="M1265.71 1332.85C1267.82 1332.85 1269.55 1333.28 1270.9 1334.16 1272.25 1335.04 1273.21 1336.27 1273.76 1337.84 1276.02 1334.51 1278.95 1332.85 1282.57 1332.85 1285.4 1332.85 1287.57 1333.63 1289.1 1335.2 1290.62 1336.76 1291.38 1339.18 1291.38 1342.43L1291.38 1362.01 1286.57 1362.01 1286.57 1344.04C1286.57 1342.11 1286.42 1340.72 1286.1 1339.87 1285.79 1339.02 1285.22 1338.33 1284.4 1337.81 1283.57 1337.3 1282.61 1337.04 1281.5 1337.04 1279.49 1337.04 1277.83 1337.7 1276.5 1339.04 1275.18 1340.37 1274.51 1342.51 1274.51 1345.44L1274.51 1362.01 1269.68 1362.01 1269.68 1343.48C1269.68 1341.33 1269.29 1339.72 1268.5 1338.65 1267.71 1337.57 1266.42 1337.04 1264.63 1337.04 1263.27 1337.04 1262.01 1337.39 1260.86 1338.11 1259.7 1338.83 1258.87 1339.87 1258.35 1341.25 1257.83 1342.63 1257.57 1344.62 1257.57 1347.21L1257.57 1362.01 1252.73 1362.01 1252.73 1333.49 1257.06 1333.49 1257.06 1337.49C1257.95 1336.1 1259.14 1334.97 1260.63 1334.12 1262.12 1333.27 1263.81 1332.85 1265.71 1332.85Z" fill-rule="evenodd"/><text fill="#000000" fill-opacity="0" font-family="Arial,Arial_MSFontService,sans-serif" font-size="29.165" x="1252.73" y="1358.37">m</text><path d="M1256.44 1324.06 1287.62 1324.06 1287.62 1326.91 1256.44 1326.91Z" fill-rule="evenodd"/><text fill="#000000" fill-opacity="0" font-family="Arial,Arial_MSFontService,sans-serif" font-size="2.84668" x="1256.44" y="1326.55">à´¥</text><g clip-path="url(#clip13)"><text font-family="Arial,Arial_MSFontService,sans-serif" font-weight="400" font-size="55" transform="matrix(1 0 0 1 1496.87 1325)">Average mass of constituent TMCs </text></g><g clip-path="url(#clip14)"><text font-family="Arial,Arial_MSFontService,sans-serif" font-weight="400" font-size="55" transform="matrix(1 0 0 1 1496.87 1407)">per formula unit</text></g><text font-family="Arial,Arial_MSFontService,sans-serif" font-weight="400" font-size="55" transform="matrix(1 0 0 1 2487.54 1366)">Ïƒ<tspan font-size="37" x="33.802" y="13">VEC</tspan></text><g clip-path="url(#clip15)"><text font-family="Arial,Arial_MSFontService,sans-serif" font-weight="400" font-size="55" transform="matrix(1 0 0 1 2695.98 1366)">VEC deviation of constituent TMCs</text></g><text font-family="Arial,Arial_MSFontService,sans-serif" font-weight="400" font-size="55" transform="matrix(1 0 0 1 1247.68 1525)">Ïƒ<tspan font-size="37" x="33.8021" y="13">m</tspan></text><g clip-path="url(#clip16)"><text font-family="Arial,Arial_MSFontService,sans-serif" font-weight="400" font-size="55" transform="matrix(1 0 0 1 1496.87 1525)">Mass deviation of constituent TMCs</text></g><text font-family="Arial,Arial_MSFontService,sans-serif" font-weight="400" font-size="55" transform="matrix(1 0 0 1 2515.61 1525)">Ïƒ<tspan font-size="37" x="33.802" y="13">Ï‡</tspan></text><g clip-path="url(#clip17)"><text font-family="Arial,Arial_MSFontService,sans-serif" font-weight="400" font-size="55" transform="matrix(1 0 0 1 2695.98 1483)">Deviation of electronegativity of </text></g><g clip-path="url(#clip18)"><text font-family="Arial,Arial_MSFontService,sans-serif" font-weight="400" font-size="55" transform="matrix(1 0 0 1 2695.98 1565)">constituent TMCs</text></g></g></svg>