<svg width="2680" height="1148" xmlns="http://www.w3.org/2000/svg" xmlns:xlink="http://www.w3.org/1999/xlink" overflow="hidden"><defs><clipPath id="clip0"><rect x="1087" y="623" width="2680" height="1148"/></clipPath><clipPath id="clip1"><rect x="1472" y="446" width="942" height="522"/></clipPath><clipPath id="clip2"><rect x="2413" y="446" width="259" height="522"/></clipPath><clipPath id="clip3"><rect x="2671" y="446" width="1093" height="522"/></clipPath><clipPath id="clip4"><rect x="1472" y="604" width="942" height="522"/></clipPath><clipPath id="clip5"><rect x="2671" y="604" width="1093" height="522"/></clipPath><clipPath id="clip6"><rect x="1472" y="763" width="942" height="522"/></clipPath><clipPath id="clip7"><rect x="2671" y="763" width="1093" height="522"/></clipPath><clipPath id="clip8"><rect x="1472" y="922" width="942" height="522"/></clipPath><clipPath id="clip9"><rect x="2671" y="922" width="1093" height="522"/></clipPath><clipPath id="clip10"><rect x="1472" y="792" width="942" height="1099"/></clipPath><clipPath id="clip11"><rect x="1472" y="792" width="942" height="1099"/></clipPath><clipPath id="clip12"><rect x="2671" y="792" width="1093" height="1099"/></clipPath><clipPath id="clip13"><rect x="2671" y="792" width="1093" height="1099"/></clipPath><clipPath id="clip14"><rect x="1472" y="950" width="942" height="1100"/></clipPath><clipPath id="clip15"><rect x="1472" y="950" width="942" height="1100"/></clipPath><clipPath id="clip16"><rect x="2671" y="950" width="1093" height="1100"/></clipPath><clipPath id="clip17"><rect x="2671" y="950" width="1093" height="1100"/></clipPath><clipPath id="clip18"><rect x="1472" y="1109" width="942" height="1099"/></clipPath><clipPath id="clip19"><rect x="1472" y="1109" width="942" height="1099"/></clipPath><clipPath id="clip20"><rect x="2671" y="1398" width="1093" height="522"/></clipPath></defs><g clip-path="url(#clip0)" transform="translate(-1087 -623)"><path d="M1087.4 785.909 3763.4 785.909" stroke="#000000" stroke-width="4.58333" stroke-linejoin="round" stroke-miterlimit="10" fill="none" fill-rule="evenodd"/><path d="M1087.4 627.234 3763.4 627.234" stroke="#000000" stroke-width="6.875" stroke-linejoin="round" stroke-miterlimit="10" fill="none" fill-rule="evenodd"/><path d="M1087.4 1737.96 3763.4 1737.96" stroke="#000000" stroke-width="6.875" stroke-linejoin="round" stroke-miterlimit="10" fill="none" fill-rule="evenodd"/><text font-family="Arial,Arial_MSFontService,sans-serif" font-weight="400" font-size="55" transform="matrix(1 0 0 1 1185.23 731)">Feature</text><g clip-path="url(#clip1)"><text font-family="Arial,Arial_MSFontService,sans-serif" font-weight="400" font-size="55" transform="matrix(1 0 0 1 1496.87 731)">Description</text></g><g clip-path="url(#clip2)"><text font-family="Arial,Arial_MSFontService,sans-serif" font-weight="400" font-size="55" transform="matrix(1 0 0 1 2438.02 731)">Feature</text></g><g clip-path="url(#clip3)"><text font-family="Arial,Arial_MSFontService,sans-serif" font-weight="400" font-size="55" transform="matrix(1 0 0 1 2695.98 731)">Description</text></g><text font-family="Arial,Arial_MSFontService,sans-serif" font-weight="400" font-size="55" transform="matrix(1 0 0 1 1214.73 890)">Î”S<tspan font-size="37" x="73.3334" y="13">mix</tspan></text><g clip-path="url(#clip4)"><text font-family="Arial,Arial_MSFontService,sans-serif" font-weight="400" font-size="55" transform="matrix(1 0 0 1 1496.87 890)">Mixing entropy</text></g><text font-family="Arial,Arial_MSFontService,sans-serif" font-weight="400" font-size="55" transform="matrix(1 0 0 1 2510.17 890)">Ïƒ<tspan font-size="37" x="33.802" y="13">m</tspan></text><g clip-path="url(#clip5)"><text font-family="Arial,Arial_MSFontService,sans-serif" font-weight="400" font-size="55" transform="matrix(1 0 0 1 2695.98 890)">Mass deviation of constituent TMCs</text></g><text font-family="Arial,Arial_MSFontService,sans-serif" font-weight="400" font-size="55" transform="matrix(1 0 0 1 1243.09 1049)">Î”V</text><g clip-path="url(#clip6)"><text font-family="Arial,Arial_MSFontService,sans-serif" font-weight="400" font-size="55" transform="matrix(1 0 0 1 1496.87 1049)">Volume misfit per formula unit</text></g><path d="M2537.62 1020.68C2536.94 1020.68 2536.29 1020.8 2535.68 1021.04 2535.06 1021.28 2534.41 1021.7 2533.74 1022.28 2533.07 1022.86 2532.43 1023.64 2531.82 1024.63 2531.21 1025.61 2530.67 1026.77 2530.18 1028.1 2529.7 1029.44 2529.23 1031.14 2528.79 1033.22L2527.85 1037.54C2527.81 1037.74 2527.77 1038.02 2527.73 1038.39 2527.68 1038.76 2527.66 1039.09 2527.66 1039.4 2527.66 1040.54 2528.13 1041.43 2529.07 1042.04 2530.01 1042.66 2531.26 1042.97 2532.82 1042.97 2534.66 1042.97 2536.29 1042.22 2537.72 1040.73 2539.14 1039.23 2540.25 1037.17 2541.03 1034.55 2541.82 1031.93 2542.21 1029.32 2542.21 1026.72 2542.21 1025.56 2542.09 1024.54 2541.85 1023.67 2541.61 1022.81 2541.15 1022.09 2540.47 1021.53 2539.79 1020.96 2538.84 1020.68 2537.62 1020.68ZM2538.32 1018.56C2540.06 1018.56 2541.59 1018.91 2542.91 1019.62 2544.24 1020.33 2545.24 1021.35 2545.92 1022.69 2546.6 1024.04 2546.94 1025.68 2546.94 1027.63 2546.94 1030.68 2546.35 1033.57 2545.16 1036.3 2543.96 1039.03 2542.31 1041.17 2540.19 1042.74 2538.07 1044.31 2535.69 1045.09 2533.06 1045.09 2531.84 1045.09 2530.68 1044.98 2529.59 1044.77 2528.5 1044.55 2527.41 1044.19 2526.32 1043.67L2523.52 1056.26 2519.12 1056.26 2524.57 1031.96C2525.22 1029.09 2526.14 1026.69 2527.34 1024.76 2528.54 1022.83 2530.06 1021.31 2531.9 1020.21 2533.75 1019.11 2535.89 1018.56 2538.32 1018.56Z" fill-rule="evenodd"/><text fill="#000000" fill-opacity="0" font-family="Arial,Arial_MSFontService,sans-serif" font-size="37.7051" x="2519.12" y="1051.55">ğœŒ</text><path d="M2529.97 1009.67 2549.87 1009.67 2549.87 1012.52 2529.97 1012.52Z" fill-rule="evenodd"/><text fill="#000000" fill-opacity="0" font-family="Arial,Arial_MSFontService,sans-serif" font-size="2.84668" x="2529.97" y="1012.16">Ò§</text><g clip-path="url(#clip7)"><text font-family="Arial,Arial_MSFontService,sans-serif" font-weight="400" font-size="55" transform="matrix(1 0 0 1 2695.98 1049)">Average density of constituent TMCs</text></g><text font-family="Arial,Arial_MSFontService,sans-serif" font-weight="400" font-size="55" transform="matrix(1 0 0 1 1214.73 1207)">Î”S<tspan font-size="37" x="73.3334" y="13">mix</tspan></text><g clip-path="url(#clip8)"><text font-family="Arial,Arial_MSFontService,sans-serif" font-weight="400" font-size="55" transform="matrix(1 0 0 1 1496.87 1207)">Mixing entropy</text></g><text font-family="Arial,Arial_MSFontService,sans-serif" font-weight="400" font-size="55" transform="matrix(1 0 0 1 2515.04 1207)">Ïƒ<tspan font-size="37" x="33.802" y="13">Ï</tspan></text><g clip-path="url(#clip9)"><text font-family="Arial,Arial_MSFontService,sans-serif" font-weight="400" font-size="55" transform="matrix(1 0 0 1 2695.98 1207)">Density deviation of constituent TMCs</text></g><path d="M1253.93 1323.13 1259.57 1323.13 1269.81 1351.73C1270.63 1354.03 1271.32 1356.17 1271.87 1358.18 1272.48 1356.03 1273.19 1353.88 1273.99 1351.73L1284.63 1323.13 1289.95 1323.13 1274.53 1362.5 1269.19 1362.5Z" fill-rule="evenodd"/><text fill="#000000" fill-opacity="0" font-family="Arial,Arial_MSFontService,sans-serif" font-size="39.3701" x="1253.93" y="1357.58">V</text><path d="M1256.44 1314.36 1287.62 1314.36 1287.62 1317.2 1256.44 1317.2Z" fill-rule="evenodd"/><text fill="#000000" fill-opacity="0" font-family="Arial,Arial_MSFontService,sans-serif" font-size="2.84668" x="1256.44" y="1316.85">à´¥</text><g clip-path="url(#clip10)"><text font-family="Arial,Arial_MSFontService,sans-serif" font-weight="400" font-size="55" transform="matrix(1 0 0 1 1496.87 1325)">Average volume of constituent </text></g><g clip-path="url(#clip11)"><text font-family="Arial,Arial_MSFontService,sans-serif" font-weight="400" font-size="55" transform="matrix(1 0 0 1 1496.87 1407)">TMCs per formula unit</text></g><text font-family="Arial,Arial_MSFontService,sans-serif" font-weight="400" font-size="55" transform="matrix(1 0 0 1 2515.61 1366)">Ïƒ<tspan font-size="37" x="33.802" y="13">Ï‡</tspan></text><g clip-path="url(#clip12)"><text font-family="Arial,Arial_MSFontService,sans-serif" font-weight="400" font-size="55" transform="matrix(1 0 0 1 2695.98 1325)">Deviation of electronegativity of </text></g><g clip-path="url(#clip13)"><text font-family="Arial,Arial_MSFontService,sans-serif" font-weight="400" font-size="55" transform="matrix(1 0 0 1 2695.98 1407)">constituent TMCs</text></g><text font-family="Arial,Arial_MSFontService,sans-serif" font-weight="400" font-size="55" transform="matrix(1 0 0 1 1250.54 1525)">Ïƒ<tspan font-size="37" x="33.8021" y="13">V</tspan></text><g clip-path="url(#clip14)"><text font-family="Arial,Arial_MSFontService,sans-serif" font-weight="400" font-size="55" transform="matrix(1 0 0 1 1496.87 1483)">Volume deviation of constituent </text></g><g clip-path="url(#clip15)"><text font-family="Arial,Arial_MSFontService,sans-serif" font-weight="400" font-size="55" transform="matrix(1 0 0 1 1496.87 1565)">TMCs</text></g><text font-family="Arial,Arial_MSFontService,sans-serif" font-weight="400" font-size="55" transform="matrix(1 0 0 1 2485.82 1525)">VEC</text><g clip-path="url(#clip16)"><text font-family="Arial,Arial_MSFontService,sans-serif" font-weight="400" font-size="55" transform="matrix(1 0 0 1 2695.98 1483)">Valence electron concentration of HECC </text></g><g clip-path="url(#clip17)"><text font-family="Arial,Arial_MSFontService,sans-serif" font-weight="400" font-size="55" transform="matrix(1 0 0 1 2695.98 1565)">candidates</text></g><path d="M1265.71 1650.2C1267.82 1650.2 1269.55 1650.63 1270.9 1651.51 1272.25 1652.39 1273.21 1653.62 1273.76 1655.19 1276.02 1651.86 1278.95 1650.2 1282.57 1650.2 1285.4 1650.2 1287.57 1650.98 1289.1 1652.55 1290.62 1654.11 1291.38 1656.53 1291.38 1659.78L1291.38 1679.36 1286.57 1679.36 1286.57 1661.39C1286.57 1659.46 1286.42 1658.07 1286.1 1657.22 1285.79 1656.37 1285.22 1655.68 1284.4 1655.16 1283.57 1654.65 1282.61 1654.39 1281.5 1654.39 1279.49 1654.39 1277.83 1655.05 1276.5 1656.39 1275.18 1657.72 1274.51 1659.86 1274.51 1662.79L1274.51 1679.36 1269.68 1679.36 1269.68 1660.83C1269.68 1658.68 1269.29 1657.07 1268.5 1656 1267.71 1654.92 1266.42 1654.39 1264.63 1654.39 1263.27 1654.39 1262.01 1654.74 1260.86 1655.46 1259.7 1656.18 1258.87 1657.22 1258.35 1658.6 1257.83 1659.98 1257.57 1661.97 1257.57 1664.56L1257.57 1679.36 1252.73 1679.36 1252.73 1650.84 1257.06 1650.84 1257.06 1654.84C1257.95 1653.45 1259.14 1652.32 1260.63 1651.47 1262.12 1650.62 1263.81 1650.2 1265.71 1650.2Z" fill-rule="evenodd"/><text fill="#000000" fill-opacity="0" font-family="Arial,Arial_MSFontService,sans-serif" font-size="29.165" x="1252.73" y="1675.72">m</text><path d="M1256.44 1641.41 1287.62 1641.41 1287.62 1644.26 1256.44 1644.26Z" fill-rule="evenodd"/><text fill="#000000" fill-opacity="0" font-family="Arial,Arial_MSFontService,sans-serif" font-size="2.84668" x="1256.44" y="1643.9">à´¥</text><g clip-path="url(#clip18)"><text font-family="Arial,Arial_MSFontService,sans-serif" font-weight="400" font-size="55" transform="matrix(1 0 0 1 1496.87 1642)">Average mass of constituent TMCs </text></g><g clip-path="url(#clip19)"><text font-family="Arial,Arial_MSFontService,sans-serif" font-weight="400" font-size="55" transform="matrix(1 0 0 1 1496.87 1724)">per formula unit</text></g><text font-family="Arial,Arial_MSFontService,sans-serif" font-weight="400" font-size="55" transform="matrix(1 0 0 1 2487.54 1683)">Ïƒ<tspan font-size="37" x="33.802" y="13">VEC</tspan></text><g clip-path="url(#clip20)"><text font-family="Arial,Arial_MSFontService,sans-serif" font-weight="400" font-size="55" transform="matrix(1 0 0 1 2695.98 1683)">VEC deviation of constituent TMCs</text></g></g></svg>